# xmcd
#
# Track frame offsets: 
#        150
#        11144
#        24461
#        34845
#        45317
#        56657
#        66303
#        76650
#        87469
#        97314
#        108905
#        119536
#        132330
#        142177
#        154505
#        166408
#        177794
#        189091
#        198556
#        209528
#        219040
#        230382
#        242739
#        256007
#        266871
#        278880
#        289403
#        299729
#        311455
#
# Disc length: 4301 seconds
#
# Revision: 0
# Processed by: cddbd v1.5.2PL0 Copyright (c) Steve Scherf et al.
# Submitted via: ExactAudioCopy v0.99pb4
#
DISCID=b010cb1d
DTITLE=Homer and Jethro (with Chet Atkins) - Volume 3
DYEAR=2008
DGENRE=Country
TTITLE0=Crazy Mixed Up Song
TTITLE1=Swapping Partners
TTITLE2=Gone
TTITLE3=Hay Shmo
TTITLE4=Hey There
TTITLE5=Homer and Jethro's Pluckin' And Singin' Medley
TTITLE6=I'm My Own Grandpa
TTITLE7=Just Be There When I Get Back
TTITLE8=Where Is That Doggone Gal Of Mine
TTITLE9=Listen To The Gooney Bird
TTITLE10=Love And Marriage
TTITLE11=This Is A Wife (What Is A Wife)
TTITLE12=Throw Mama From The Train A Kiss A Kiss
TTITLE13=Night After Christmas
TTITLE14=Santa Baby
TTITLE15=Nutty Lady From Shady Lane
TTITLE16=Oh My Pappy
TTITLE17=Ramblin' Rose
TTITLE18=They Were Doing The Mambo
TTITLE19=Wanted
TTITLE20=Your Clobbered Heart
TTITLE21=Sifting Whimpering Sands
TTITLE22=Moon Over Manakoora
TTITLE23=I'd Like To Get You On A Slow Boat To China
TTITLE24=Have I Stayed Away Too Long
TTITLE25=My Daring My Darling
TTITLE26=Once In Love With Amy
TTITLE27=A Bushel And A Peck
TTITLE28=If I Were A Bell
EXTD=
EXTT0=
EXTT1=
EXTT2=
EXTT3=
EXTT4=
EXTT5=
EXTT6=
EXTT7=
EXTT8=
EXTT9=
EXTT10=
EXTT11=
EXTT12=
EXTT13=
EXTT14=
EXTT15=
EXTT16=
EXTT17=
EXTT18=
EXTT19=
EXTT20=
EXTT21=
EXTT22=
EXTT23=
EXTT24=
EXTT25=
EXTT26=
EXTT27=
EXTT28=
PLAYORDER=
